<?xml version="1.0" encoding="utf-8"?>
<!-- Generator: Adobe Illustrator 17.0.0, SVG Export Plug-In . SVG Version: 6.00 Build 0)  -->
<!DOCTYPE svg PUBLIC "-//W3C//DTD SVG 1.1//EN" "http://www.w3.org/Graphics/SVG/1.1/DTD/svg11.dtd">
<svg version="1.1"
	 id="svg2" xmlns:dc="http://purl.org/dc/elements/1.1/" xmlns:cc="http://creativecommons.org/ns#" xmlns:sodipodi="http://sodipodi.sourceforge.net/DTD/sodipodi-0.dtd" xmlns:inkscape="http://www.inkscape.org/namespaces/inkscape" xmlns:rdf="http://www.w3.org/1999/02/22-rdf-syntax-ns#" xmlns:svg="http://www.w3.org/2000/svg" inkscape:version="0.91 r13725" sodipodi:docname="pls.io.svg"
	 xmlns="http://www.w3.org/2000/svg" xmlns:xlink="http://www.w3.org/1999/xlink" x="0px" y="0px" width="202.1px" height="202.1px"
	 viewBox="10.9 -20.1 202.1 202.1" style="enable-background:new 10.9 -20.1 202.1 202.1;" xml:space="preserve">
<style type="text/css">
	.st0{fill:#E74C3C;fill-opacity:0.9412;}
	.st1{fill:#F39C12;fill-opacity:0.9412;}
	.st2{fill:#2ECC71;fill-opacity:0.9412;}
	.st3{fill:#3498DF;fill-opacity:0.9412;}
	.st4{fill:none;stroke:#444444;stroke-width:17;}
	.st5{fill:#444444;}
</style>
<sodipodi:namedview  inkscape:cy="843.93611" inkscape:zoom="0.7" bordercolor="#666666" borderopacity="1.0" inkscape:cx="293.02351" showgrid="false" pagecolor="#ffffff" id="base" inkscape:pageopacity="0.0" inkscape:pageshadow="2" inkscape:window-width="1920" inkscape:window-height="1017" inkscape:window-x="1912" inkscape:document-units="px" inkscape:current-layer="layer1" inkscape:window-y="1" inkscape:window-maximized="1">
	</sodipodi:namedview>
<g id="layer1" inkscape:label="Calque 1" inkscape:groupmode="layer">
	<ellipse id="path5643-9-1" class="st0" cx="80.5" cy="122.1" rx="9" ry="8.9"/>
	<ellipse id="path5643-9-3" class="st1" cx="143.4" cy="122.1" rx="9" ry="8.9"/>
	<ellipse id="path5643-9" class="st2" cx="143.4" cy="34.7" rx="9" ry="8.9"/>
	<ellipse id="path5643" class="st3" cx="80.5" cy="34.7" rx="9" ry="8.9"/>
	<circle id="path3336" class="st4" cx="112" cy="81" r="92.6"/>
	<g id="g5620" transform="matrix(7.8214286,0,0,7.8214286,84.928569,70.933635)">
		<g id="g5573">
			<g id="Layer_1_98_">
				<g id="g5576">
					<path id="path5578" inkscape:connector-curvature="0" class="st5" d="M0.3,4.3V3.8c0-0.7,0.4-1.3,1-1.6c-0.5-0.2-1-0.5-1.5-0.9
						c-0.7,0.7-1.2,1.6-1.2,2.5v0.5c-0.9,0.3-1.6,1.2-1.6,2.3C-2.9,7.9-1.8,9-0.5,9s2.4-1.1,2.4-2.4C1.9,5.5,1.2,4.6,0.3,4.3z
						 M-0.5,7.4C-1,7.4-1.3,7-1.3,6.6c0-0.4,0.4-0.8,0.8-0.8s0.8,0.4,0.8,0.8C0.3,7-0.1,7.4-0.5,7.4z"/>
					<path id="path5580" inkscape:connector-curvature="0" class="st5" d="M6.7-2.4v0.3c0,0.8-0.4,1.5-1.1,1.9
						c0.5,0.2,1,0.5,1.5,0.9C7.8,0,8.3-1,8.3-2.1v-0.3c0.9-0.3,1.6-1.2,1.6-2.3C9.9-6,8.8-7,7.5-7C6.2-7,5.1-6,5.1-4.6
						C5.1-3.6,5.8-2.7,6.7-2.4z M7.5-5.4c0.4,0,0.8,0.4,0.8,0.8c0,0.4-0.4,0.8-0.8,0.8C7-3.8,6.7-4.2,6.7-4.6C6.7-5.1,7-5.4,7.5-5.4
						z"/>
					<path id="path5582" inkscape:connector-curvature="0" class="st5" d="M8.2,4.3C7.9,2,5.9,0.2,3.5,0.2c-1.5,0-2.8-1.1-3.1-2.6
						C1.4-2.8,2-3.8,1.9-5c-0.2-1-0.9-1.8-2-2c-1.5-0.3-2.8,0.9-2.8,2.4c0,1.1,0.7,2,1.7,2.3C-0.9,0,1.1,1.8,3.5,1.8
						c1.5,0,2.8,1.1,3.1,2.6c-1,0.4-1.7,1.4-1.5,2.6c0.2,1,0.9,1.8,2,2C8.6,9.2,9.9,8,9.9,6.6C9.9,5.5,9.2,4.6,8.2,4.3z M-0.7-5.4
						c0.6-0.1,1.1,0.4,1,1C0.2-4.2,0-3.9-0.3-3.9c-0.6,0.1-1.1-0.4-1-1C-1.2-5.1-1-5.4-0.7-5.4z M7.7,7.3c-0.6,0.1-1.1-0.4-1-1
						C6.8,6.1,7,5.8,7.3,5.8c0.6-0.1,1.1,0.4,1,1C8.2,7,8,7.3,7.7,7.3z"/>
				</g>
			</g>
		</g>
		<g id="g5584">
		</g>
		<g id="g5586">
		</g>
		<g id="g5588">
		</g>
		<g id="g5590">
		</g>
		<g id="g5592">
		</g>
		<g id="g5594">
		</g>
		<g id="g5596">
		</g>
		<g id="g5598">
		</g>
		<g id="g5600">
		</g>
		<g id="g5602">
		</g>
		<g id="g5604">
		</g>
		<g id="g5606">
		</g>
		<g id="g5608">
		</g>
		<g id="g5610">
		</g>
		<g id="g5612">
		</g>
	</g>
</g>
<path class="st5" d="M75.1,52.4"/>
<path class="st5" d="M87.7,52.1"/>
</svg>
