<?xml version="1.0" encoding="utf-8"?>
<!-- Generator: Adobe Illustrator 19.0.0, SVG Export Plug-In . SVG Version: 6.00 Build 0)  -->
<svg version="1.1"
	 id="svg2" xmlns:dc="http://purl.org/dc/elements/1.1/" xmlns:cc="http://creativecommons.org/ns#" xmlns:sodipodi="http://sodipodi.sourceforge.net/DTD/sodipodi-0.dtd" xmlns:inkscape="http://www.inkscape.org/namespaces/inkscape" xmlns:rdf="http://www.w3.org/1999/02/22-rdf-syntax-ns#" xmlns:svg="http://www.w3.org/2000/svg" sodipodi:docname="pls.io.svg" inkscape:version="0.91 r13725"
	 xmlns="http://www.w3.org/2000/svg" xmlns:xlink="http://www.w3.org/1999/xlink" x="0px" y="0px" viewBox="-196 319.8 202.1 202.1"
	 style="enable-background:new -196 319.8 202.1 202.1;" xml:space="preserve">
<style type="text/css">
	.st0{fill:#FFFFFF;stroke:#000000;stroke-miterlimit:10;}
	.st1{fill:#E74C3C;fill-opacity:0.9412;}
	.st2{fill:#F39C12;fill-opacity:0.9412;}
	.st3{fill:#2ECC71;fill-opacity:0.9412;}
	.st4{fill:#3498DF;fill-opacity:0.9412;}
	.st5{fill:none;stroke:#444444;stroke-width:17;}
	.st6{fill:#444444;}
</style>
<circle class="st0" cx="-94.9" cy="418.5" r="92.3"/>
<sodipodi:namedview  id="base" pagecolor="#ffffff" showgrid="false" inkscape:cx="293.02351" borderopacity="1.0" bordercolor="#666666" inkscape:zoom="0.7" inkscape:cy="843.93611" inkscape:window-maximized="1" inkscape:window-height="1017" inkscape:window-width="1920" inkscape:window-y="1" inkscape:current-layer="layer1" inkscape:pageshadow="2" inkscape:pageopacity="0.0" inkscape:document-units="px" inkscape:window-x="1912">
	</sodipodi:namedview>
<g id="layer1" inkscape:label="Calque 1" inkscape:groupmode="layer">
	<ellipse id="path5643-9-1" class="st1" cx="-126.7" cy="461.9" rx="9" ry="8.9"/>
	<ellipse id="path5643-9-3" class="st2" cx="-63.8" cy="461.9" rx="9" ry="8.9"/>
	<ellipse id="path5643-9" class="st3" cx="-63.8" cy="374.5" rx="9" ry="8.9"/>
	<ellipse id="path5643" class="st4" cx="-126.7" cy="374.5" rx="9" ry="8.9"/>
	<circle id="path3336" class="st5" cx="-95.2" cy="420.8" r="92.6"/>
	<g id="g5620" transform="matrix(7.8214286,0,0,7.8214286,84.928569,70.933635)">
		<g id="g5573">
			<g id="Layer_1_98_">
				<g id="g5576">
					<path id="path5578" inkscape:connector-curvature="0" class="st6" d="M-26.2,47.7v-0.5c0-0.7,0.4-1.3,1-1.6
						c-0.5-0.2-1-0.5-1.5-0.9c-0.7,0.7-1.2,1.6-1.2,2.5v0.5c-0.9,0.3-1.6,1.2-1.6,2.3c0.1,1.3,1.2,2.4,2.5,2.4
						c1.3,0,2.4-1.1,2.4-2.4C-24.6,48.9-25.3,48-26.2,47.7z M-27,50.8c-0.5,0-0.8-0.4-0.8-0.8c0-0.4,0.4-0.8,0.8-0.8
						c0.4,0,0.8,0.4,0.8,0.8C-26.2,50.4-26.6,50.8-27,50.8z"/>
					<path id="path5580" inkscape:connector-curvature="0" class="st6" d="M-19.8,41v0.3c0,0.8-0.4,1.5-1.1,1.9
						c0.5,0.2,1,0.5,1.5,0.9c0.7-0.7,1.2-1.7,1.2-2.8V41c0.9-0.3,1.6-1.2,1.6-2.3c0-1.3-1.1-2.3-2.4-2.3c-1.3,0-2.4,1-2.4,2.4
						C-21.4,39.8-20.7,40.7-19.8,41z M-19,38c0.4,0,0.8,0.4,0.8,0.8c0,0.4-0.4,0.8-0.8,0.8c-0.5,0-0.8-0.4-0.8-0.8
						C-19.8,38.3-19.5,38-19,38z"/>
					<path id="path5582" inkscape:connector-curvature="0" class="st6" d="M-18.3,47.7c-0.3-2.3-2.3-4.1-4.7-4.1
						c-1.5,0-2.8-1.1-3.1-2.6c1-0.4,1.6-1.4,1.5-2.6c-0.2-1-0.9-1.8-2-2c-1.5-0.3-2.8,0.9-2.8,2.4c0,1.1,0.7,2,1.7,2.3
						c0.3,2.3,2.3,4.1,4.7,4.1c1.5,0,2.8,1.1,3.1,2.6c-1,0.4-1.7,1.4-1.5,2.6c0.2,1,0.9,1.8,2,2c1.5,0.2,2.8-1,2.8-2.4
						C-16.6,48.9-17.3,48-18.3,47.7z M-27.2,38c0.6-0.1,1.1,0.4,1,1c-0.1,0.2-0.3,0.5-0.6,0.5c-0.6,0.1-1.1-0.4-1-1
						C-27.7,38.3-27.5,38-27.2,38z M-18.8,50.7c-0.6,0.1-1.1-0.4-1-1c0.1-0.2,0.3-0.5,0.6-0.5c0.6-0.1,1.1,0.4,1,1
						C-18.3,50.4-18.5,50.7-18.8,50.7z"/>
				</g>
			</g>
		</g>
		<g id="g5584">
		</g>
		<g id="g5586">
		</g>
		<g id="g5588">
		</g>
		<g id="g5590">
		</g>
		<g id="g5592">
		</g>
		<g id="g5594">
		</g>
		<g id="g5596">
		</g>
		<g id="g5598">
		</g>
		<g id="g5600">
		</g>
		<g id="g5602">
		</g>
		<g id="g5604">
		</g>
		<g id="g5606">
		</g>
		<g id="g5608">
		</g>
		<g id="g5610">
		</g>
		<g id="g5612">
		</g>
	</g>
</g>
<path class="st6" d="M-132.1,392.2"/>
<path class="st6" d="M-119.5,391.9"/>
</svg>
